<?xml version="1.0" encoding="UTF-8"?>
<svg version="1.1" xmlns="http://www.w3.org/2000/svg" width="512" height="512">
<path d="M0 0 C1.4240918 0.29003906 1.4240918 0.29003906 2.87695312 0.5859375 C32.4362514 6.66670743 61.5852817 17.96175143 86 36 C87.24449847 36.8871302 88.48931425 37.77381536 89.734375 38.66015625 C98.92507315 45.29232066 107.28862646 52.55425882 115.40771484 60.45458984 C116.77528763 61.7819029 118.16130336 63.09016686 119.55078125 64.39453125 C126.10868436 70.67287899 131.56278005 77.75686018 137 85 C137.42958008 85.56879883 137.85916016 86.13759766 138.30175781 86.72363281 C159.04090031 114.35985734 171.95547887 145.29647356 179 179 C179.18079102 179.82000488 179.36158203 180.64000977 179.54785156 181.48486328 C186.65512742 214.76754378 185.98285917 263.09659766 170.1875 293.86328125 C167.70932286 297.41681026 165.79308466 298.92616262 162 301 C159.23960432 301.36976385 156.89071004 301.52588337 154.14126587 301.48101807 C152.98201428 301.48614462 152.98201428 301.48614462 151.79934347 301.49137473 C149.21952545 301.49794351 146.6407567 301.47599501 144.06103516 301.45410156 C142.2079572 301.45297286 140.35487745 301.45360738 138.50180054 301.45587158 C133.47736565 301.45701878 128.45331308 301.43350835 123.428967 301.40557575 C118.17592083 301.38056321 112.92286581 301.37822021 107.66976929 301.37347412 C97.725081 301.36104394 87.7805687 301.32822166 77.83595788 301.28807616 C66.51320533 301.24335987 55.19044435 301.22137175 43.86762547 301.20129442 C20.57831943 301.15948914 -2.71083042 301.08913615 -26 301 C-25.99631283 301.68506937 -25.99262566 302.37013874 -25.98882675 303.07596779 C-25.90045671 319.75174953 -25.83428123 336.42745702 -25.79275131 353.10341835 C-25.77213348 361.16782673 -25.74402793 369.23207872 -25.69824219 377.29638672 C-25.65835038 384.32594323 -25.63256151 391.35538648 -25.62364602 398.38505304 C-25.61843518 402.10663334 -25.60620451 405.82788963 -25.57707977 409.549366 C-25.54481583 413.70574515 -25.54404208 417.86156241 -25.54589844 422.01806641 C-25.53151733 423.24949371 -25.51713623 424.48092102 -25.50231934 425.74966431 C-25.53322238 432.13267026 -25.62263049 436.19082605 -30 441 C-35.46828185 446.20830014 -41.440037 445.57548221 -48.5625 445.4375 C-50.37016846 445.41550537 -50.37016846 445.41550537 -52.21435547 445.39306641 C-107.33360537 444.24733329 -160.19462442 419.70195927 -199.40771484 381.54541016 C-200.77528763 380.2180971 -202.16130336 378.90983314 -203.55078125 377.60546875 C-210.10868436 371.32712101 -215.56278005 364.24313982 -221 357 C-221.64437012 356.14680176 -221.64437012 356.14680176 -222.30175781 355.27636719 C-243.04090031 327.64014266 -255.95547887 296.70352644 -263 263 C-263.18079102 262.17999512 -263.36158203 261.35999023 -263.54785156 260.51513672 C-268.96936103 235.12673603 -268.54137771 204.31767137 -263 179 C-262.70996094 177.5759082 -262.70996094 177.5759082 -262.4140625 176.12304688 C-256.33329257 146.5637486 -245.03824857 117.4147183 -227 93 C-226.1128698 91.75550153 -225.22618464 90.51068575 -224.33984375 89.265625 C-217.70767934 80.07492685 -210.44574118 71.71137354 -202.54541016 63.59228516 C-201.2180971 62.22471237 -199.90983314 60.83869664 -198.60546875 59.44921875 C-192.32712101 52.89131564 -185.24313982 47.43721995 -178 42 C-177.43120117 41.57041992 -176.86240234 41.14083984 -176.27636719 40.69824219 C-148.64014266 19.95909969 -117.70352644 7.04452113 -84 0 C-83.17999512 -0.18079102 -82.35999023 -0.36158203 -81.51513672 -0.54785156 C-56.12673603 -5.96936103 -25.31767137 -5.54137771 0 0 Z M-175.51708984 83.58447266 C-176.8591556 84.86555551 -178.21958521 86.12733217 -179.58203125 87.38671875 C-190.9549418 98.20843816 -200.31111019 111.35644104 -208 125 C-208.38752441 125.67691895 -208.77504883 126.35383789 -209.17431641 127.05126953 C-225.51459714 155.81092867 -233.45644484 187.35693419 -233.375 220.375 C-233.37445618 221.20771423 -233.37391235 222.04042847 -233.37335205 222.89837646 C-233.22028219 274.06657024 -212.28399092 319.56284275 -176.625 355.6875 C-169.8327737 362.43658688 -162.9318861 368.60006782 -155 374 C-154.31776367 374.46712402 -153.63552734 374.93424805 -152.93261719 375.41552734 C-130.93719466 390.29023396 -106.86250491 400.79269504 -80.875 406.4375 C-80.17874512 406.58944824 -79.48249023 406.74139648 -78.76513672 406.89794922 C-74.09600428 407.81734523 -69.45458824 408.21993395 -64.70751953 408.54321289 C-63.4503714 408.62978653 -62.19322327 408.71636017 -60.89797974 408.80555725 C-59.94164642 408.86972336 -58.98531311 408.93388947 -58 409 C-57.99853344 408.33554556 -57.99706688 407.67109112 -57.99555588 406.98650169 C-57.95848781 390.81125728 -57.8994733 374.6362565 -57.81609726 358.46118736 C-57.77630502 350.63899776 -57.74391352 342.81690878 -57.72900391 334.99462891 C-57.71598828 328.17590895 -57.68902612 321.3574104 -57.64538693 314.53881514 C-57.62276981 310.92909488 -57.60708945 307.31964771 -57.60811615 303.70985031 C-57.60900143 299.67783589 -57.57874755 295.64662684 -57.54589844 291.61474609 C-57.55344398 289.82370956 -57.55344398 289.82370956 -57.56114197 287.99649048 C-57.48417412 281.89956751 -57.40796702 277.64147862 -53 273 C-48.84221583 269.86327968 -45.23153479 269.56752062 -40.18559265 269.60127258 C-39.40544558 269.59462576 -38.62529851 269.58797893 -37.82151061 269.58113068 C-35.21119618 269.56249983 -32.60134008 269.565106 -29.9909668 269.56762695 C-28.11832532 269.55860984 -26.24568976 269.54828275 -24.37306213 269.53674316 C-19.29086013 269.5091411 -14.20877001 269.49988427 -9.12650275 269.49388909 C-3.81466208 269.4845138 1.49709473 269.45831108 6.80888367 269.43388367 C16.86683526 269.39019177 26.9247706 269.3616613 36.98278826 269.33856028 C48.43376235 269.31152306 59.88465219 269.26761062 71.33556616 269.22227156 C94.89033178 269.12938673 118.44512383 269.05772354 142 269 C142.80961242 265.80767126 143.61489105 262.6142642 144.41943359 259.4206543 C144.64710922 258.52314201 144.87478485 257.62562973 145.10935974 256.7009201 C148.22034784 244.32824275 149.41037575 232.40901145 149.375 219.6875 C149.37445618 218.94666168 149.37391235 218.20582336 149.37335205 217.4425354 C149.3282572 203.99398769 148.08564206 191.12284554 145 178 C144.79101074 177.10571289 144.58202148 176.21142578 144.36669922 175.29003906 C132.77260913 127.47201656 102.13342206 85.13105477 60.625 58.8125 C58.42923455 57.520073 56.21967938 56.25091043 54 55 C53.32308105 54.61247559 52.64616211 54.22495117 51.94873047 53.82568359 C32.68805423 42.88240867 12.70005372 36.21439802 -9 32 C-10.74796875 31.64808594 -10.74796875 31.64808594 -12.53125 31.2890625 C-71.71302475 20.76446854 -132.77284009 42.6240066 -175.51708984 83.58447266 Z " fill="#000000" transform="translate(298,35)"/>
<path d="M0 0 C6.07887883 5.65505261 10.1631833 12.43453242 11.0859375 20.79296875 C11.22639732 32.09998431 8.91014696 40.52595887 0.97265625 48.8046875 C-7.12400715 55.89104668 -14.90694093 57.23779296 -25.41796875 57.0234375 C-34.38226862 56.38378307 -41.33158516 52.45929433 -47.25 45.75 C-52.82271813 37.73833145 -55.16554208 29.47218497 -54.25 19.75 C-52.47027999 9.86432834 -47.45249013 2.53999303 -39.25 -3.25 C-25.91139317 -10.36392364 -11.86334687 -9.7124223 0 0 Z " fill="#000000" transform="translate(401.25,198.25)"/>
<path d="M0 0 C0.62132812 0.391875 1.24265625 0.78375 1.8828125 1.1875 C2.50414062 1.538125 3.12546875 1.88875 3.765625 2.25 C10.62646489 6.5268872 14.82186485 13.48012042 16.8828125 21.1875 C17.90343553 32.53303041 17.01279015 42.16329925 9.8828125 51.4375 C3.12798682 58.53798841 -5.6146512 61.97000857 -15.30859375 62.28515625 C-25.12452665 61.94385121 -33.69222391 58.18280126 -40.4921875 50.9375 C-47.39066727 41.90284325 -48.24137656 32.17957083 -47.1171875 21.1875 C-46.2322966 17.81828974 -44.96941417 15.12425412 -43.1171875 12.1875 C-42.7665625 11.56617187 -42.4159375 10.94484375 -42.0546875 10.3046875 C-33.73233229 -3.04575731 -13.65305461 -7.47543675 0 0 Z " fill="#000000" transform="translate(335.1171875,115.8125)"/>
<path d="M0 0 C6.93932235 4.7883486 11.92684544 10.76716113 14.60546875 18.8203125 C16.49891374 29.28112742 15.52774242 39.3608751 9.4921875 48.2109375 C3.98142674 55.10579631 -3.33233973 59.32729363 -12 61 C-21.87904567 61.93767213 -30.51949525 59.94312563 -38.25390625 53.59375 C-45.70304659 46.79453466 -49.53110727 38.94161015 -50.09375 28.8984375 C-49.80220386 19.88480273 -47.2165751 12.53913324 -41 6 C-40.4740625 5.44570312 -39.948125 4.89140625 -39.40625 4.3203125 C-28.5819476 -5.94235157 -12.94338557 -6.98313355 0 0 Z " fill="#000000" transform="translate(240,104)"/>
<path d="M0 0 C8.28076091 4.98930738 12.92878223 11.15162594 16.171875 20.30859375 C18.44933184 31.08945454 16.78355139 39.8142413 10.86328125 49.015625 C6.09506306 55.47969909 0.02566066 59.4930433 -7.828125 61.30859375 C-16.76109138 62.18930875 -25.00594577 62.24208438 -32.828125 57.30859375 C-33.76011719 56.78265625 -33.76011719 56.78265625 -34.7109375 56.24609375 C-41.57053119 51.9699834 -45.76977522 45.01565685 -47.828125 37.30859375 C-48.62016412 28.42117808 -48.72743644 20.07658097 -43.828125 12.30859375 C-43.4775 11.68726563 -43.126875 11.0659375 -42.765625 10.42578125 C-34.14507768 -3.4030134 -14.15631142 -6.86438591 0 0 Z " fill="#000000" transform="translate(160.828125,162.69140625)"/>
</svg>
