<?xml version="1.0" encoding="UTF-8"?>
<svg version="1.1" xmlns="http://www.w3.org/2000/svg" width="512" height="512">
<path d="M0 0 C0.99868909 -0.00297112 1.99737819 -0.00594224 3.02633059 -0.0090034 C6.35908455 -0.01764635 9.69180239 -0.01919493 13.02456665 -0.02069092 C15.42015662 -0.02532233 17.81574585 -0.03034742 20.21133423 -0.03573608 C26.71186048 -0.04883371 33.21237985 -0.05533771 39.71291685 -0.05974674 C43.78023756 -0.06251761 47.84755591 -0.06675656 51.91487503 -0.07125092 C63.19913521 -0.08343966 74.48339352 -0.09373856 85.76766014 -0.09712601 C86.48888342 -0.09734557 87.2101067 -0.09756514 87.95318524 -0.09779136 C88.67603937 -0.09800964 89.39889351 -0.09822791 90.14365232 -0.09845281 C91.60818887 -0.09889626 93.07272542 -0.09934282 94.53726196 -0.09979248 C95.2637076 -0.10001391 95.99015323 -0.10023534 96.73861237 -0.10046348 C108.48858398 -0.10440477 120.23849332 -0.12184006 131.98844092 -0.145152 C144.08217627 -0.16895013 156.17588049 -0.18133175 168.26963961 -0.18249393 C175.04751456 -0.18340615 181.82530843 -0.18904286 188.60316086 -0.20731354 C194.98736375 -0.22388814 201.37141365 -0.2259044 207.75563049 -0.21717453 C210.08628883 -0.21640908 212.41695571 -0.22068117 214.74759293 -0.23063278 C258.07962913 -0.40465983 296.27158717 14.14096113 327.37026978 44.66778564 C335.82133285 53.25263113 342.72223089 62.77794547 348.81997681 73.14044189 C349.16657349 73.72519287 349.51317017 74.30994385 349.87026978 74.91241455 C362.01010239 95.68527045 368.98307225 119.22610484 368.9604187 143.32046509 C368.96487538 144.81849873 368.96487538 144.81849873 368.9694221 146.34679568 C368.97806505 149.67954963 368.97961363 153.01226748 368.98110962 156.34503174 C368.98574103 158.7406217 368.99076612 161.13621093 368.99615479 163.53179932 C369.00925242 170.03232557 369.01575642 176.53284494 369.02016544 183.03338194 C369.02293631 187.10070264 369.02717527 191.168021 369.03166962 195.23534012 C369.04385836 206.5196003 369.05415726 217.80385861 369.05754471 229.08812523 C369.05776427 229.80934851 369.05798384 230.53057179 369.05821006 231.27365033 C369.05842834 231.99650446 369.05864662 232.7193586 369.05887151 233.46411741 C369.05931496 234.92865396 369.05976152 236.3931905 369.06021118 237.85772705 C369.06043261 238.58417268 369.06065404 239.31061832 369.06088218 240.05907746 C369.06482347 251.80904907 369.08225876 263.55895841 369.1055707 275.308906 C369.12936883 287.40264135 369.14175045 299.49634558 369.14291263 311.5901047 C369.14382485 318.36797965 369.14946156 325.14577352 369.16773224 331.92362595 C369.18430684 338.30782883 369.1863231 344.69187874 369.17759323 351.07609558 C369.17682778 353.40675392 369.18109987 355.7374208 369.19105148 358.06805801 C369.36507853 401.40009422 354.81945758 439.59205226 324.29263306 470.69073486 C315.70778757 479.14179794 306.18247323 486.04269597 295.81997681 492.14044189 C295.23522583 492.48703857 294.65047485 492.83363525 294.04800415 493.19073486 C273.27514825 505.33056748 249.73431386 512.30353734 225.63995361 512.28088379 C224.64126452 512.28385491 223.64257542 512.28682603 222.61362302 512.28988719 C219.28086907 512.29853014 215.94815122 512.30007872 212.61538696 512.30157471 C210.219797 512.30620611 207.82420777 512.31123121 205.42861938 512.31661987 C198.92809313 512.3297175 192.42757376 512.3362215 185.92703676 512.34063053 C181.85971606 512.3434014 177.7923977 512.34764035 173.72507858 512.3521347 C162.4408184 512.36432345 151.15656009 512.37462235 139.87229347 512.3780098 C138.79045855 512.37833915 138.79045855 512.37833915 137.68676838 512.37867515 C136.96391424 512.37889343 136.2410601 512.3791117 135.49630129 512.3793366 C134.03176474 512.37978005 132.5672282 512.38022661 131.10269165 512.38067627 C130.37624602 512.3808977 129.64980038 512.38111913 128.90134124 512.38134727 C117.15136963 512.38528855 105.40146029 512.40272385 93.6515127 512.42603579 C81.55777735 512.44983392 69.46407312 512.46221554 57.370314 512.46337771 C50.59243905 512.46428994 43.81464518 512.46992664 37.03679276 512.48819733 C30.65258987 512.50477193 24.26853996 512.50678819 17.88432312 512.49805832 C15.55366478 512.49729287 13.2229979 512.50156496 10.89236069 512.51151657 C-32.43967552 512.68554362 -70.63163355 498.13992266 -101.73031616 467.61309814 C-110.18137924 459.02825266 -117.08227727 449.50293832 -123.18002319 439.14044189 C-123.52661987 438.55569092 -123.87321655 437.97093994 -124.23031616 437.36846924 C-139.15366328 411.83265263 -143.96888288 384.22270078 -143.82699585 354.93341064 C-143.83379502 352.5269607 -143.84271086 350.12051597 -143.85354614 347.71408081 C-143.87607264 341.2594098 -143.86761464 334.80514453 -143.85165071 328.35046768 C-143.84267249 324.30057544 -143.84447118 320.25073325 -143.84910202 316.20083618 C-143.84986819 315.52315191 -143.85063435 314.84546765 -143.85142373 314.14724749 C-143.85302277 312.7694531 -143.85464384 311.39165874 -143.85628669 310.0138644 C-143.87045789 297.17115175 -143.8542884 284.32861914 -143.82728486 271.48593605 C-143.80495393 260.5272569 -143.80883651 249.56884283 -143.83187866 238.61016846 C-143.85879081 225.80542442 -143.86908541 213.00083715 -143.85381734 200.19606876 C-143.85222502 198.82406174 -143.85065316 197.45205468 -143.84910202 196.08004761 C-143.84833064 195.40544076 -143.84755927 194.73083391 -143.84676451 194.03578442 C-143.84249339 189.33985864 -143.8498857 184.64406472 -143.86149979 179.94815063 C-143.87611257 173.59803788 -143.86562045 167.2484178 -143.8370285 160.89835739 C-143.83050645 158.58998806 -143.83215941 156.2815761 -143.84334183 153.97322464 C-144.02984188 111.50758545 -129.37532516 73.193066 -99.75082397 42.66778564 C-73.70742027 16.77431011 -36.88675524 -0.03468097 0 0 Z " fill="#2492FF" transform="translate(143.18002319335938,-0.14044189453125)"/>
<path d="M0 0 C33 0 66 0 100 0 C100 18.81 100 37.62 100 57 C102.97 57.99 105.94 58.98 109 60 C111.73562767 61.38096589 114.3605814 62.77459175 117 64.3125 C117.64710938 64.67794922 118.29421875 65.04339844 118.9609375 65.41992188 C124.1325429 68.37877516 129.07473811 71.65022336 134 75 C137.71106326 72.94238538 141.41873246 70.8787401 145.125 68.8125 C146.24471191 68.18843262 147.36442383 67.56436523 148.51806641 66.92138672 C157.1688443 62.07748728 165.71590421 57.07808273 174.18017578 51.91333008 C175.03595215 51.39794678 175.89172852 50.88256348 176.7734375 50.3515625 C177.52028809 49.89604004 178.26713867 49.44051758 179.03662109 48.97119141 C181 48 181 48 184 48 C184.32049316 48.57105469 184.64098633 49.14210937 184.97119141 49.73046875 C191.75383309 61.80342699 198.61400182 73.82579423 205.61010742 85.77636719 C210.69833804 94.47002505 215.73729137 103.19136 220.76318359 111.92114258 C224.81792067 118.961661 228.89924344 125.98618459 233 133 C229.9807616 136.29944404 226.90542334 138.39237849 223.01171875 140.57421875 C222.14772713 141.06260979 222.14772713 141.06260979 221.26628113 141.56086731 C219.40992476 142.60894957 217.54879808 143.64822385 215.6875 144.6875 C213.15067714 146.11554351 210.61629637 147.54789224 208.08203125 148.98046875 C207.46376465 149.32919037 206.84549805 149.67791199 206.20849609 150.03720093 C200.21907467 153.42299247 194.34168561 156.97327542 188.4921875 160.59375 C186 162 186 162 184 162 C184.16226074 162.70938721 184.32452148 163.41877441 184.49169922 164.1496582 C185.00609707 167.03418987 185.12936392 169.67786819 185.1328125 172.60546875 C185.13410156 173.67216797 185.13539063 174.73886719 185.13671875 175.83789062 C185.13285156 176.94326172 185.12898438 178.04863281 185.125 179.1875 C185.12886719 180.27353516 185.13273437 181.35957031 185.13671875 182.47851562 C185.12882853 189.04712359 184.80457376 195.48002015 184 202 C184.69947754 202.26031006 185.39895508 202.52062012 186.11962891 202.78881836 C189.26354118 204.11081775 192.12678944 205.68300829 195.0859375 207.37890625 C195.94787468 207.87140617 195.94787468 207.87140617 196.82722473 208.37385559 C198.67854753 209.43318332 200.52695311 210.49746904 202.375 211.5625 C203.64230947 212.29057001 204.90964351 213.01859726 206.17700195 213.74658203 C212.86432726 217.59284875 219.54930814 221.4444248 226.1875 225.375 C227.31542969 226.04273438 228.44335938 226.71046875 229.60546875 227.3984375 C232 229 232 229 233 231 C231.97460938 233.20117187 231.97460938 233.20117187 230.34375 235.96875 C229.74111328 237.00128906 229.13847656 238.03382813 228.51757812 239.09765625 C227.85177734 240.22042969 227.18597656 241.34320313 226.5 242.5 C225.81100063 243.67528434 225.12286205 244.85107369 224.43554688 246.02734375 C223.00464607 248.47463642 221.5700355 250.91969647 220.1328125 253.36328125 C216.88704263 258.88871334 213.69612123 264.44575716 210.5 270 C209.26459167 272.1420821 208.02891278 274.28400819 206.79296875 276.42578125 C206.17599121 277.49521973 205.55901367 278.5646582 204.92333984 279.66650391 C203.25096329 282.56503518 201.57838453 285.46344956 199.90567017 288.36178589 C198.87326522 290.15066918 197.84092044 291.93958717 196.80859375 293.72851562 C195.51314052 295.97337636 194.2175743 298.2181719 192.921875 300.46289062 C189.93692086 305.63571774 186.95754683 310.81145009 184 316 C180.56406532 315.32739369 177.91798394 313.98050766 174.87890625 312.26171875 C173.87013428 311.69404785 172.8613623 311.12637695 171.82202148 310.54150391 C170.74637939 309.92968262 169.6707373 309.31786133 168.5625 308.6875 C167.46043213 308.06536621 166.35836426 307.44323242 165.22290039 306.80224609 C161.81184747 304.87412132 158.40519243 302.9384537 155 301 C153.93491211 300.39397949 152.86982422 299.78795898 151.77246094 299.16357422 C145.8421365 295.78645387 139.91775373 292.39909886 134 289 C133.36835938 289.4125 132.73671875 289.825 132.0859375 290.25 C126.74827687 293.69563684 121.35912429 297.04329606 115.875 300.25 C114.77929688 300.89453125 113.68359375 301.5390625 112.5546875 302.203125 C109 304 109 304 100 307 C100 326.14 100 345.28 100 365 C67 365 34 365 0 365 C0 345.86 0 326.72 0 307 C-4.455 305.515 -4.455 305.515 -9 304 C-11.75803629 302.61966725 -14.40259332 301.22868411 -17.0625 299.6875 C-17.75641846 299.29522217 -18.45033691 298.90294434 -19.1652832 298.4987793 C-23.56544663 295.96895688 -27.58214505 293.25706412 -31.32421875 289.80078125 C-33.06418752 288.7308561 -33.06418752 288.7308561 -35.25610352 289.75463867 C-38.14082537 291.06391585 -40.83830425 292.53455394 -43.578125 294.125 C-44.64925537 294.7449585 -45.72038574 295.36491699 -46.82397461 296.00366211 C-47.95456299 296.66245361 -49.08515137 297.32124512 -50.25 298 C-51.41851873 298.67682874 -52.58722107 299.3533406 -53.75610352 300.02954102 C-58.98572227 303.058934 -64.20192927 306.10911822 -69.38671875 309.21484375 C-70.55702637 309.91383789 -70.55702637 309.91383789 -71.75097656 310.62695312 C-73.17457582 311.48022253 -74.59470616 312.33931517 -76.01074219 313.20507812 C-80.66974707 316 -80.66974707 316 -84 316 C-84.3717334 315.33170166 -84.7434668 314.66340332 -85.12646484 313.97485352 C-94.45886913 297.20215644 -94.45886913 297.20215644 -104.09912109 280.60571289 C-108.61734261 272.98748433 -113.02424808 265.30545227 -117.43945312 257.62719727 C-120.32757875 252.6102984 -123.22448999 247.60043423 -126.18359375 242.625 C-126.65410156 241.83351563 -127.12460938 241.04203125 -127.609375 240.2265625 C-128.47133784 238.78150715 -129.33701079 237.33865599 -130.20703125 235.8984375 C-133 231.21780711 -133 231.21780711 -133 229 C-132.42258057 228.68885254 -131.84516113 228.37770508 -131.25024414 228.05712891 C-120.64207833 222.33121986 -110.06995838 216.57220262 -99.72094727 210.38720703 C-94.86140243 207.48361492 -89.95755377 204.75419654 -85 202 C-85 188.8 -85 175.6 -85 162 C-90.506875 158.9371875 -90.506875 158.9371875 -96.125 155.8125 C-104.96373514 150.87155212 -113.76471656 145.87221842 -122.5 140.75 C-123.91369873 139.92786011 -123.91369873 139.92786011 -125.35595703 139.08911133 C-126.21817871 138.58017334 -127.08040039 138.07123535 -127.96875 137.546875 C-128.72607422 137.10182617 -129.48339844 136.65677734 -130.26367188 136.19824219 C-132 135 -132 135 -133 133 C-131.97460937 130.79882812 -131.97460937 130.79882812 -130.34375 128.03125 C-129.74111328 126.99871094 -129.13847656 125.96617187 -128.51757812 124.90234375 C-127.85177734 123.77957031 -127.18597656 122.65679687 -126.5 121.5 C-125.81100063 120.32471566 -125.12286205 119.14892631 -124.43554688 117.97265625 C-123.00464607 115.52536358 -121.5700355 113.08030353 -120.1328125 110.63671875 C-116.88704263 105.11128666 -113.69612123 99.55424284 -110.5 94 C-109.26459167 91.8579179 -108.02891278 89.71599181 -106.79296875 87.57421875 C-106.17599121 86.50478027 -105.55901367 85.4353418 -104.92333984 84.33349609 C-103.25096329 81.43496482 -101.57838453 78.53655044 -99.90567017 75.63821411 C-98.87326522 73.84933082 -97.84092044 72.06041283 -96.80859375 70.27148438 C-95.51314052 68.02662364 -94.2175743 65.7818281 -92.921875 63.53710938 C-89.93692086 58.36428226 -86.95754683 53.18854991 -84 48 C-80.11285811 48.58496035 -77.33804847 49.73923879 -73.96484375 51.73828125 C-72.99973877 52.30611328 -72.03463379 52.87394531 -71.0402832 53.45898438 C-70.01636475 54.07064453 -68.99244629 54.68230469 -67.9375 55.3125 C-66.35231567 56.24352539 -66.35231567 56.24352539 -64.73510742 57.19335938 C-59.49378931 60.28152343 -54.29481086 63.42397528 -49.1484375 66.66796875 C-48.24617432 67.2302417 -47.34391113 67.79251465 -46.41430664 68.37182617 C-44.71063013 69.43796286 -43.01657452 70.51966808 -41.33374023 71.6184082 C-37.09155861 74.44828268 -37.09155861 74.44828268 -32.22265625 74.5078125 C-31.48917969 74.01023437 -30.75570312 73.51265625 -30 73 C-29.29101562 72.52304688 -28.58203125 72.04609375 -27.8515625 71.5546875 C-27.11679688 71.00039062 -26.38203125 70.44609375 -25.625 69.875 C-21.3026348 66.78109649 -16.86178362 64.1373561 -12.1875 61.625 C-11.55344238 61.27937012 -10.91938477 60.93374023 -10.26611328 60.57763672 C-6.71082297 58.69995499 -4.02471187 57.80494237 0 57 C0 38.19 0 19.38 0 0 Z " fill="#FEFEFF" transform="translate(206,74)"/>
<path d="M0 0 C1.66289062 0.71349609 1.66289062 0.71349609 3.359375 1.44140625 C11.40143479 5.07642597 17.82402398 9.65183134 24 16 C24.54914063 16.51691406 25.09828125 17.03382813 25.6640625 17.56640625 C36.89743585 29.07010142 40.38563256 44.94517278 40.29907227 60.39697266 C40.1533181 66.38603022 39.43955495 71.47844502 37 77 C36.28650391 78.66289062 36.28650391 78.66289062 35.55859375 80.359375 C31.92357403 88.40143479 27.34816866 94.82402398 21 101 C20.48308594 101.54914063 19.96617187 102.09828125 19.43359375 102.6640625 C15.54164307 106.46455742 10.86709402 108.80288504 6.0625 111.25 C5.05981079 111.76264404 5.05981079 111.76264404 4.03686523 112.28564453 C-8.51976396 118.43301733 -23.68287436 119.08422024 -37.0703125 115.09765625 C-47.58825175 111.15693501 -56.11976444 106.09994473 -64 98 C-64.54914063 97.48308594 -65.09828125 96.96617187 -65.6640625 96.43359375 C-69.46455742 92.54164307 -71.80288504 87.86709402 -74.25 83.0625 C-74.76264404 82.05981079 -74.76264404 82.05981079 -75.28564453 81.03686523 C-81.43301733 68.48023604 -82.08422024 53.31712564 -78.09765625 39.9296875 C-74.15693501 29.41174825 -69.09994473 20.88023556 -61 13 C-60.48308594 12.45085937 -59.96617187 11.90171875 -59.43359375 11.3359375 C-44.97352321 -2.78434026 -18.55045693 -8.19603522 0 0 Z " fill="#2592FF" transform="translate(276,199)"/>
</svg>
