<?xml version="1.0" encoding="UTF-8"?>
<svg version="1.1" xmlns="http://www.w3.org/2000/svg" width="512" height="512">
<path d="M0 0 C1.63309093 -0.00417981 3.26617895 -0.00966086 4.89926165 -0.01631981 C9.35827209 -0.03070842 13.81709665 -0.0265504 18.27611697 -0.019153 C23.0962963 -0.01440722 27.91643623 -0.02694366 32.73660278 -0.03717041 C42.16887874 -0.05433651 51.60108802 -0.05520291 61.03337554 -0.04995751 C68.70316225 -0.04591028 76.3729293 -0.04736593 84.04271507 -0.05270576 C85.68234457 -0.0538284 85.68234457 -0.0538284 87.35509789 -0.05497371 C89.57596551 -0.05650525 91.79683314 -0.05804359 94.01770075 -0.05958868 C114.82887802 -0.07330595 135.64001767 -0.06788159 156.45119407 -0.05640347 C175.47132249 -0.04647324 194.4913536 -0.05940951 213.51146702 -0.08333766 C233.06227401 -0.10774727 252.61303572 -0.11733186 272.16385764 -0.11068493 C283.13174659 -0.10719668 294.09956073 -0.10939867 305.06743813 -0.12693596 C314.40469083 -0.14168127 323.74181605 -0.142263 333.07906631 -0.12486505 C337.83843908 -0.11637164 342.59758433 -0.11416479 347.35694504 -0.1295166 C351.7225472 -0.14342339 356.08772823 -0.13852421 360.4533064 -0.11927737 C362.02386249 -0.11553531 363.59445281 -0.11838696 365.16497824 -0.12888902 C385.88154904 -0.25745587 403.33778018 5.91590528 418.62419128 20.38768005 C423.83434634 25.72855585 427.53892735 31.67153485 430.93669128 38.26268005 C431.42528625 39.19769348 431.42528625 39.19769348 431.92375183 40.15159607 C437.3747468 51.2761624 438.06296219 62.58622921 438.01187134 74.76348877 C438.01605115 76.3965797 438.02153219 78.02966772 438.02819115 79.66275042 C438.04257976 84.12176085 438.03842174 88.58058542 438.03102434 93.03960574 C438.02627856 97.85978507 438.038815 102.679925 438.04904175 107.50009155 C438.06620785 116.93236751 438.06707425 126.36457679 438.06182884 135.79686431 C438.05778162 143.46665102 438.05923727 151.13641807 438.0645771 158.80620384 C438.06532552 159.89929017 438.06607395 160.9923765 438.06684505 162.11858666 C438.06837658 164.33945428 438.06991493 166.56032191 438.07146002 168.78118952 C438.08517729 189.59236679 438.07975293 210.40350644 438.0682748 231.21468284 C438.05834458 250.23481126 438.07128085 269.25484237 438.095209 288.27495579 C438.11961861 307.82576278 438.1292032 327.37652449 438.12255627 346.92734641 C438.11906802 357.89523536 438.12127001 368.8630495 438.1388073 379.8309269 C438.15355261 389.1681796 438.15413434 398.50530482 438.13673639 407.84255508 C438.12824298 412.60192785 438.12603613 417.3610731 438.14138794 422.12043381 C438.15529472 426.48603597 438.15039554 430.851217 438.1311487 435.21679517 C438.12740664 436.78735126 438.1302583 438.35794158 438.14076035 439.92846701 C438.27271023 461.19016003 431.7270297 478.93864477 416.62419128 494.38768005 C400.94936709 508.34471529 383.76415663 512.86143599 363.24838257 512.77536011 C361.61529164 512.77953992 359.98220362 512.78502096 358.34912091 512.79167992 C353.89011048 512.80606853 349.43128592 512.80191051 344.9722656 512.79451311 C340.15208627 512.78976733 335.33194634 512.80230377 330.51177979 512.81253052 C321.07950383 512.82969662 311.64729455 512.83056302 302.21500703 512.82531761 C294.54522032 512.82127039 286.87545327 512.82272604 279.2056675 512.82806587 C277.566038 512.82918851 277.566038 512.82918851 275.89328468 512.83033382 C273.67241705 512.83186535 271.45154943 512.8334037 269.23068181 512.83494879 C248.41950455 512.84866606 227.6083649 512.8432417 206.7971885 512.83176357 C187.77706008 512.82183335 168.75702896 512.83476962 149.73691555 512.85869776 C130.18610856 512.88310738 110.63534685 512.89269197 91.08452493 512.88604504 C80.11663598 512.88255679 69.14882184 512.88475878 58.18094444 512.90229607 C48.84369174 512.91704138 39.50656652 512.91762311 30.16931625 512.90022516 C25.40994349 512.89173174 20.65079824 512.8895249 15.89143753 512.90487671 C11.52583537 512.91878349 7.16065434 512.91388431 2.79507617 512.89463747 C1.22452008 512.89089541 -0.34607024 512.89374707 -1.91659568 512.90424912 C-23.17828869 513.036199 -40.92677344 506.49051847 -56.37580872 491.38768005 C-70.33284395 475.71285586 -74.84956465 458.5276454 -74.76348877 438.01187134 C-74.76766858 436.37878041 -74.77314963 434.74569239 -74.77980858 433.11260968 C-74.79419719 428.65359925 -74.79003917 424.19477469 -74.78264177 419.73575437 C-74.77789599 414.91557504 -74.79043243 410.0954351 -74.80065918 405.27526855 C-74.81782528 395.8429926 -74.81869168 386.41078332 -74.81344628 376.9784958 C-74.80939905 369.30870909 -74.8108547 361.63894204 -74.81619453 353.96915627 C-74.81694296 352.87606994 -74.81769138 351.78298361 -74.81846248 350.65677345 C-74.81999402 348.43590582 -74.82153236 346.2150382 -74.82307745 343.99417058 C-74.83679472 323.18299331 -74.83137036 302.37185367 -74.81989224 281.56067727 C-74.80996201 262.54054885 -74.82289828 243.52051773 -74.84682643 224.50040432 C-74.87123604 204.94959733 -74.88082063 185.39883562 -74.8741737 165.8480137 C-74.87068545 154.88012475 -74.87288744 143.91231061 -74.89042473 132.94443321 C-74.90517004 123.60718051 -74.90575177 114.27005529 -74.88835382 104.93280502 C-74.87986041 100.17343226 -74.87765356 95.41428701 -74.89300537 90.6549263 C-74.90691216 86.28932414 -74.90201297 81.92414311 -74.88276614 77.55856494 C-74.87902408 75.98800885 -74.88187573 74.41741853 -74.89237779 72.84689309 C-75.02094464 52.1303223 -68.84758349 34.67409116 -54.37580872 19.38768005 C-49.03493292 14.17752499 -43.09195392 10.47294399 -36.50080872 7.07518005 C-35.87746643 6.74945007 -35.25412415 6.42372009 -34.6118927 6.08811951 C-23.48732637 0.63712453 -12.17725956 -0.05109085 0 0 Z " fill="#0084FF" transform="translate(74.37580871582031,-0.3876800537109375)"/>
<path d="M0 0 C2.40156758 2.20325868 4.73315117 4.47576537 7.06445312 6.75292969 C8.31935547 7.91501953 8.31935547 7.91501953 9.59960938 9.10058594 C36.80824232 34.9293833 49.94890116 70.23724562 51.28320312 107.12402344 C52.21670084 146.15766482 35.21807935 181.52125339 9.06445312 209.75292969 C-17.494081 237.49364797 -57.12805573 254.95527824 -95.36279297 256.92993164 C-99.34564367 256.99779963 -103.3271547 257.05023852 -107.31054688 257.06542969 C-108.03609772 257.0690451 -108.76164856 257.07266052 -109.50918579 257.0763855 C-121.58680035 257.10045342 -133.15365396 255.97242568 -145.04101562 253.72558594 C-146.34135742 253.48122803 -146.34135742 253.48122803 -147.66796875 253.23193359 C-149.93554687 252.75292969 -149.93554687 252.75292969 -152.97851562 251.78027344 C-158.05274241 251.73335192 -161.81830404 254.67445457 -166.06054688 257.25292969 C-168.09648518 258.44744699 -170.13433919 259.63870354 -172.17382812 260.82714844 C-173.79925537 261.77920166 -173.79925537 261.77920166 -175.45751953 262.75048828 C-181.02209535 265.9778826 -186.69013517 269.01737969 -192.36053467 272.05371094 C-194.23251703 273.05710559 -196.10091715 274.06695695 -197.96923828 275.07714844 C-199.67926025 275.99367188 -199.67926025 275.99367188 -201.42382812 276.92871094 C-202.44001221 277.47438721 -203.45619629 278.02006348 -204.50317383 278.58227539 C-206.93554688 279.75292969 -206.93554688 279.75292969 -208.93554688 279.75292969 C-208.93554688 261.27292969 -208.93554688 242.79292969 -208.93554688 223.75292969 C-210.25554687 223.09292969 -211.57554687 222.43292969 -212.93554688 221.75292969 C-241.47096243 199.36305073 -262.36128559 166.9625939 -267.93554688 130.75292969 C-268.11730469 129.59664062 -268.2990625 128.44035156 -268.48632812 127.24902344 C-270.38718745 111.39408579 -270.23411054 94.16846834 -265.93554688 78.75292969 C-265.65710938 77.55667969 -265.37867188 76.36042969 -265.09179688 75.12792969 C-256.39179387 39.12791727 -232.82333305 7.90406404 -201.93554688 -12.24707031 C-201.3080957 -12.66504883 -200.68064453 -13.08302734 -200.03417969 -13.51367188 C-182.87312503 -24.80133175 -163.1432553 -32.62113312 -142.93554688 -36.24707031 C-141.20111328 -36.56224609 -141.20111328 -36.56224609 -139.43164062 -36.88378906 C-136.27100493 -37.40993975 -133.11535561 -37.85475625 -129.93554688 -38.24707031 C-129.04609375 -38.35921875 -128.15664062 -38.47136719 -127.24023438 -38.58691406 C-81.81194803 -43.31093814 -34.44142043 -30.63609495 0 0 Z " fill="#FEFEFE" transform="translate(364.935546875,135.2470703125)"/>
<path d="M0 0 C3.2239517 1.41539343 5.35666792 3.11414928 7.8125 5.625 C8.75029297 6.57246094 8.75029297 6.57246094 9.70703125 7.5390625 C11.58875261 9.55862716 13.39269095 11.61085853 15.19140625 13.703125 C19.28211743 18.40369619 23.68412086 22.75776728 28.125 27.125 C32.99434242 31.91438606 37.74460467 36.65084843 42 42 C46.99965767 40.53498403 51.19737072 38.37828816 55.6875 35.8125 C57.29406781 34.9071917 58.90085269 34.00226854 60.5078125 33.09765625 C61.3834082 32.60281738 62.25900391 32.10797852 63.16113281 31.59814453 C69.58780368 27.98024055 76.04696719 24.42017751 82.49853516 20.84692383 C88.42404936 17.55983508 94.3333854 14.24887492 100.21875 10.890625 C101.38001406 10.2305956 102.54138908 9.57076139 103.70288086 8.91113281 C105.9080204 7.65673035 108.10949745 6.39586301 110.30688477 5.12792969 C111.28971436 4.57008789 112.27254395 4.01224609 113.28515625 3.4375 C114.15019775 2.94121094 115.01523926 2.44492188 115.90649414 1.93359375 C116.94277954 1.47146484 116.94277954 1.47146484 118 1 C118.99 1.495 118.99 1.495 120 2 C118.60587891 3.37671875 118.60587891 3.37671875 117.18359375 4.78125 C108.65506118 13.22332273 108.65506118 13.22332273 100.63671875 22.14453125 C97.96827135 25.16962078 95.05802725 27.94951366 92.1875 30.78125 C90.20279658 32.79430632 88.33903084 34.85446403 86.5 37 C83.95308392 39.97140209 81.28621141 42.7514401 78.5 45.5 C75.73439592 48.22829407 73.08712969 50.98516834 70.5625 53.9375 C67.0553056 58.03058303 63.24274842 61.77224704 59.41015625 65.55859375 C56.73272987 68.27073555 54.25616038 71.10482182 51.78125 74 C49.04282228 77.07472586 46.08667835 79.92221451 43.15625 82.8125 C40.26514131 85.74550881 37.62914291 88.83154573 35 92 C31.91134658 90.63578505 29.92150644 89.1229872 27.63671875 86.6484375 C27.00427246 85.96958496 26.37182617 85.29073242 25.72021484 84.59130859 C25.04941895 83.85992676 24.37862305 83.12854492 23.6875 82.375 C22.2565776 80.83327098 20.8255863 79.2916059 19.39453125 77.75 C18.6670166 76.96238281 17.93950195 76.17476563 17.18994141 75.36328125 C15.07924503 73.0855175 12.95520648 70.82127628 10.82421875 68.5625 C10.16010986 67.85818848 9.49600098 67.15387695 8.81176758 66.42822266 C7.55820954 65.09928996 6.30417195 63.77080939 5.04956055 62.44287109 C1.24340992 58.39227901 -2.41052667 54.24408852 -6 50 C-9.91348632 51.47944455 -13.550079 53.27316212 -17.2421875 55.23828125 C-17.83856018 55.55526978 -18.43493286 55.8722583 -19.04937744 56.19885254 C-20.99294129 57.23360259 -22.93412784 58.27271094 -24.875 59.3125 C-25.54239197 59.66903656 -26.20978394 60.02557312 -26.8973999 60.39291382 C-38.46131837 66.57345021 -49.8937036 72.96803547 -61.28759766 79.45654297 C-65.95386683 82.11182233 -70.62653188 84.75462963 -75.3125 87.375 C-76.16150879 87.85815674 -77.01051758 88.34131348 -77.88525391 88.83911133 C-78.66175293 89.27118896 -79.43825195 89.7032666 -80.23828125 90.1484375 C-80.91930908 90.53177246 -81.60033691 90.91510742 -82.30200195 91.31005859 C-82.86234131 91.53773926 -83.42268066 91.76541992 -84 92 C-84.66 91.67 -85.32 91.34 -86 91 C-85.49138428 90.49662109 -84.98276855 89.99324219 -84.45874023 89.47460938 C-82.11559272 87.15248022 -79.77653398 84.8262723 -77.4375 82.5 C-76.63763672 81.70851563 -75.83777344 80.91703125 -75.01367188 80.1015625 C-70.67075742 75.77637423 -66.50256802 71.37709565 -62.50805664 66.72851562 C-60.6038514 64.54593944 -58.5783765 62.51633541 -56.5 60.5 C-53.71378859 57.7514401 -51.04691608 54.97140209 -48.5 52 C-45.95308392 49.02859791 -43.28621141 46.2485599 -40.5 43.5 C-37.73439592 40.77170593 -35.08712969 38.01483166 -32.5625 35.0625 C-29.05650315 30.97081459 -25.24538109 27.23033117 -21.4140625 23.4453125 C-18.71631684 20.71264456 -16.21592297 17.8590588 -13.72265625 14.94140625 C-11.20907434 12.10863934 -8.49855825 9.48790104 -5.80078125 6.83203125 C-3.68853476 4.68312973 -1.80733925 2.40978566 0 0 Z " fill="#2397F3" transform="translate(238,203)"/>
</svg>
